<svg width="110" height="48" viewBox="0 0 110 48" fill="none" xmlns="http://www.w3.org/2000/svg">
<path fill-rule="evenodd" clip-rule="evenodd" d="M24.4688 16.6858C19.7136 19.6146 16.5275 24.9539 16.5122 31.0588V31.1027V31.1469C16.5125 31.2473 16.5135 31.3471 16.5155 31.447C16.5565 33.5439 16.9717 35.5464 17.6953 37.3871C20.1136 43.5393 25.9765 47.8844 32.8294 47.9027H32.8724H32.9152C36.9031 47.892 40.5559 46.4165 43.3897 43.9717V47.9027H49.2327V31.1469V31.1341V31.1027V31.0713V31.0585C49.2095 21.8004 41.8937 14.3027 32.8722 14.3027C31.8918 14.3027 30.9312 14.3913 29.9979 14.5612C28.0073 14.9233 26.1409 15.6553 24.4685 16.6856V16.6853L24.4688 16.6858ZM43.3902 31.1029C43.3902 31.115 43.3902 31.1267 43.3902 31.1388C43.3716 37.087 38.6699 41.9033 32.873 41.9033C28.2606 41.9033 24.3415 38.8545 22.9232 34.6123C22.5553 33.5123 22.3555 32.3319 22.3555 31.1032C22.3555 25.9824 25.8265 21.694 30.4842 20.5832C31.2518 20.3999 32.0512 20.3034 32.8727 20.3034C38.6814 20.3034 43.3902 25.1385 43.3902 31.1032V31.1029Z" fill="#090A3E"/>
<path fill-rule="evenodd" clip-rule="evenodd" d="M0 25.1769V48H5.84302V33.1745V25.1772H7.22135H14.0231V19.1715H5.84302V19.2185V19.265V19.2185C5.84302 19.2028 5.84302 19.1871 5.84302 19.1715C5.86771 11.8962 11.6135 6.00629 18.6979 6.00629V0.000541687C8.38659 0.000541687 0.0246949 8.57951 0.000254587 19.1717V19.2188V19.2661V25.1775L0 25.1769Z" fill="#090A3E"/>
<path fill-rule="evenodd" clip-rule="evenodd" d="M57.4128 40.4003V28.7031C57.4128 24.0638 61.0753 20.3032 65.5927 20.3032C70.1106 20.3032 73.7731 24.064 73.7731 28.7031C73.7731 28.7135 73.7731 28.7237 73.7731 28.7344V40.4006V47.9033H79.6161V28.7033C79.6161 20.7505 73.3375 14.3034 65.5927 14.3034C57.8482 14.3034 51.5698 20.7505 51.5698 28.7033V47.9033H57.4128V40.4006V40.4003Z" fill="#090A3E"/>
<path fill-rule="evenodd" clip-rule="evenodd" d="M101.618 35.8068C102.49 36.3255 103.164 36.869 103.495 37.5142C103.857 38.22 103.869 38.4744 103.595 39.1342C102.995 40.5749 101.327 41.4664 98.8065 41.903C97.6754 42.0991 96.3579 42.1968 94.854 42.1968C93.5908 42.1968 92.3682 42.0988 91.187 41.903C90.1587 41.7323 89.1612 41.4876 88.1951 41.1684C87.4369 40.9172 86.7447 40.6353 86.0962 40.3229L82.0147 44.9334C82.0987 44.9784 82.1822 45.0252 82.2683 45.0694C83.1904 45.5428 84.1802 45.9682 85.2352 46.3412C88.2348 47.3848 91.4324 47.9027 94.8278 47.9027C99.4427 47.9027 103.087 47.0973 105.772 45.5109C107.436 44.5275 108.595 43.327 109.234 41.9027C109.385 41.5658 109.524 41.3592 109.747 40.6066C109.984 39.8056 110.021 38.8969 109.991 38.3026C109.946 37.4255 109.792 36.5043 109.626 35.8742C109.463 35.2581 109.199 34.6672 108.833 34.1026C108.12 33.0053 107.021 32.0057 105.533 31.1027C105.472 31.0656 105.41 31.0287 105.348 30.9918C104.227 30.3367 102.864 29.7122 101.26 29.1179C100.634 28.8973 99.9524 28.6534 99.2052 28.4022L98.2382 28.1128C98.0445 28.0458 97.8406 27.987 97.644 27.9251C97.5394 27.8934 97.4264 27.8597 97.3042 27.8231L95.8209 27.3358L95.7219 27.29C92.9309 26.4524 90.9861 25.7134 89.8982 25.0583C89.1271 24.6 88.4924 24.138 88.2633 23.5469C88.2338 23.4706 88.2042 23.4045 88.192 23.3409C87.8099 21.3528 90.5001 20.5886 91.9802 20.3029C92.9958 20.1068 94.201 20.0091 95.5964 20.0091C96.7601 20.0091 97.8861 20.1071 98.9755 20.3029C99.7584 20.4438 100.522 20.6354 101.266 20.8775C101.893 21.0681 102.486 21.3039 103.068 21.5706C103.277 21.6772 103.486 21.7763 103.684 21.883C103.76 21.9321 103.838 21.9794 103.913 22.0265L105.745 20.3029L108.457 17.7514C108.429 17.7239 108.391 17.6994 108.347 17.6698C108.169 17.5503 107.973 17.4259 107.764 17.2889C107.457 17.1289 107.16 16.9689 106.864 16.8244C106.028 16.3899 105.127 16.0092 104.194 15.6817C101.502 14.7601 98.6558 14.3029 95.6229 14.3029C91.4365 14.3029 88.1403 15.019 85.7116 16.4662C83.9878 17.4771 82.8788 18.7571 82.38 20.3029C82.2848 20.5981 82.1629 21.065 82.0982 21.558C82.0147 22.1943 81.9541 22.6534 81.9536 23.1561V23.1705C81.9539 23.4429 81.9719 23.7284 82.0132 24.0622C82.0768 24.5728 82.1168 24.882 82.1573 25.0807C82.3793 26.1769 82.9412 27.1844 83.8426 28.1031C84.4371 28.7085 85.1797 29.2761 86.0698 29.8047C86.8419 30.2585 87.736 30.6902 88.7569 31.1029C89.0724 31.2305 89.4003 31.3563 89.7396 31.4804C90.3002 31.6857 90.9207 31.9181 91.6078 32.128L92.478 32.3939L94.7944 33.1489L94.8932 33.1719C95.9431 33.4916 96.891 33.8024 97.7367 34.1033C99.4488 34.7125 100.743 35.2821 101.618 35.8076V35.8073V35.8068Z" fill="#090A3E"/>
</svg>
