<svg width="55" height="24" viewBox="0 0 55 24" fill="none" xmlns="http://www.w3.org/2000/svg">
<path fill-rule="evenodd" clip-rule="evenodd" d="M12.2342 8.34197C9.85657 9.80635 8.2635 12.476 8.25586 15.5285V15.5504V15.5725C8.25599 15.6227 8.2565 15.6726 8.25751 15.7226C8.27801 16.771 8.48562 17.7723 8.84739 18.6926C10.0566 21.7687 12.988 23.9413 16.4145 23.9504H16.436H16.4574C18.4513 23.9451 20.2777 23.2073 21.6946 21.9849V23.9504H24.6161V15.5725V15.5661V15.5504V15.5347V15.5283C24.6045 10.8992 20.9466 7.15039 16.4359 7.15039C15.9456 7.15039 15.4654 7.1947 14.9987 7.27967C14.0034 7.4607 13.0702 7.8267 12.234 8.34184V8.34171L12.2342 8.34197ZM21.6949 15.5505C21.6949 15.5566 21.6949 15.5624 21.6949 15.5684C21.6856 18.5426 19.3347 20.9507 16.4362 20.9507C14.1301 20.9507 12.1705 19.4263 11.4614 17.3052C11.2774 16.7552 11.1775 16.165 11.1775 15.5507C11.1775 12.9903 12.913 10.846 15.2418 10.2906C15.6256 10.199 16.0253 10.1508 16.4361 10.1508C19.3404 10.1508 21.6949 12.5683 21.6949 15.5507V15.5505Z" fill="white"/>
<path fill-rule="evenodd" clip-rule="evenodd" d="M0 12.5882V23.9997H2.92151V16.587V12.5883H3.61067H7.01157V9.58546H2.92151V9.60898V9.63225V9.60898C2.92151 9.60114 2.92151 9.5933 2.92151 9.58546C2.93386 5.94784 5.80674 3.00287 9.34893 3.00287V0C4.1933 0 0.0123475 4.28948 0.000127293 9.58559V9.60912V9.63278V12.5885L0 12.5882Z" fill="white"/>
<path fill-rule="evenodd" clip-rule="evenodd" d="M28.7067 20.2008V14.3522C28.7067 12.0325 30.5379 10.1522 32.7966 10.1522C35.0555 10.1522 36.8868 12.0326 36.8868 14.3522C36.8868 14.3574 36.8868 14.3625 36.8868 14.3678V20.2009V23.9523H39.8083V14.3523C39.8083 10.3759 36.669 7.15234 32.7966 7.15234C28.9243 7.15234 25.7852 10.3759 25.7852 14.3523V23.9523H28.7067V20.2009V20.2008Z" fill="white"/>
<path fill-rule="evenodd" clip-rule="evenodd" d="M50.8087 17.9023C51.2449 18.1617 51.5817 18.4334 51.7472 18.756C51.9282 19.1089 51.9345 19.2361 51.7973 19.566C51.4975 20.2864 50.6631 20.7321 49.403 20.9504C48.8374 21.0485 48.1787 21.0974 47.4268 21.0974C46.7951 21.0974 46.1839 21.0483 45.5932 20.9504C45.0791 20.8651 44.5804 20.7427 44.0973 20.5831C43.7182 20.4575 43.3721 20.3166 43.0479 20.1604L41.0071 22.4657C41.0491 22.4881 41.0909 22.5115 41.1339 22.5336C41.595 22.7704 42.0899 22.983 42.6174 23.1695C44.1171 23.6914 45.7159 23.9503 47.4137 23.9503C49.7211 23.9503 51.5434 23.5476 52.8857 22.7544C53.7177 22.2627 54.2974 21.6624 54.6169 20.9503C54.6924 20.7818 54.7618 20.6785 54.873 20.3022C54.9916 19.9017 55.0103 19.4474 54.9952 19.1503C54.973 18.7117 54.8956 18.2511 54.8126 17.9361C54.7315 17.628 54.5994 17.3326 54.4161 17.0502C54.0599 16.5016 53.5104 16.0018 52.7662 15.5503C52.7358 15.5317 52.7049 15.5133 52.6735 15.4949C52.1131 15.1673 51.4319 14.855 50.6297 14.5579C50.3166 14.4476 49.9759 14.3256 49.6023 14.2L49.1189 14.0553C49.022 14.0219 48.92 13.9924 48.8218 13.9615C48.7695 13.9456 48.7129 13.9288 48.6518 13.9105L47.9102 13.6668L47.8607 13.644C46.4652 13.2252 45.4928 12.8556 44.9489 12.5281C44.5633 12.2989 44.246 12.068 44.1314 11.7724C44.1166 11.7342 44.1019 11.7012 44.0958 11.6694C43.9047 10.6753 45.2498 10.2933 45.9899 10.1504C46.4977 10.0524 47.1003 10.0035 47.798 10.0035C48.3798 10.0035 48.9428 10.0525 49.4875 10.1504C49.8789 10.2208 50.2607 10.3167 50.6329 10.4377C50.946 10.533 51.2426 10.6509 51.5339 10.7842C51.6383 10.8375 51.7426 10.8871 51.8416 10.9404C51.88 10.965 51.9186 10.9887 51.9562 11.0122L52.8721 10.1504L54.228 8.87463C54.2142 8.8609 54.1952 8.84862 54.1731 8.83385C54.0843 8.77411 53.9863 8.71189 53.8819 8.6434C53.7282 8.5634 53.5797 8.4834 53.4316 8.41112C53.0139 8.19387 52.5634 8.00356 52.0965 7.83977C50.7505 7.37901 49.3276 7.15039 47.8112 7.15039C45.718 7.15039 44.0699 7.50841 42.8555 8.23204C41.9936 8.73751 41.4391 9.37748 41.1898 10.1504C41.1422 10.298 41.0812 10.5314 41.0489 10.7779C41.0071 11.0961 40.9768 11.3256 40.9766 11.577V11.5842C40.9767 11.7204 40.9857 11.8631 41.0063 12.03C41.0382 12.2853 41.0582 12.44 41.0784 12.5393C41.1894 13.0874 41.4703 13.5912 41.9211 14.0505C42.2183 14.3532 42.5896 14.637 43.0346 14.9013C43.4207 15.1282 43.8678 15.344 44.3782 15.5504C44.5359 15.6142 44.6999 15.6771 44.8696 15.7392C45.1499 15.8418 45.4601 15.958 45.8037 16.0629L46.2387 16.1959L47.397 16.5734L47.4464 16.5849C47.9713 16.7447 48.4452 16.9002 48.8681 17.0506C49.7242 17.3552 50.3711 17.64 50.8087 17.9027V17.9026V17.9023Z" fill="white"/>
</svg>
